<?xml version="1.0" encoding="UTF-8" standalone="no"?>
<svg
   id="svg2"
   width="256"
   height="256"
   version="1.1"
   viewBox="0 0 240 240"
   sodipodi:docname="kitty-tab-kube.svg"
   inkscape:version="1.2.2 (b0a8486541, 2022-12-01)"
   inkscape:export-filename="kitty-tab-kube.png"
   inkscape:export-xdpi="309.91208"
   inkscape:export-ydpi="309.91208"
   xmlns:inkscape="http://www.inkscape.org/namespaces/inkscape"
   xmlns:sodipodi="http://sodipodi.sourceforge.net/DTD/sodipodi-0.dtd"
   xmlns="http://www.w3.org/2000/svg"
   xmlns:svg="http://www.w3.org/2000/svg">
  <defs
     id="defs88" />
  <sodipodi:namedview
     id="namedview86"
     pagecolor="#ffffff"
     bordercolor="#666666"
     borderopacity="1.0"
     inkscape:showpageshadow="2"
     inkscape:pageopacity="0.0"
     inkscape:pagecheckerboard="0"
     inkscape:deskcolor="#d1d1d1"
     showgrid="false"
     inkscape:zoom="3.6923613"
     inkscape:cx="55.926271"
     inkscape:cy="135.55012"
     inkscape:window-width="1920"
     inkscape:window-height="1054"
     inkscape:window-x="0"
     inkscape:window-y="26"
     inkscape:window-maximized="1"
     inkscape:current-layer="svg2" />
  <metadata
     id="metadata7" />
  <g
     id="g296"
     transform="matrix(1.8282232,0,0,1.8414437,40.063278,81.542717)">
    <path
       d="m 79.797436,18.8 c -0.5,-1.6 -1.7,-2.9 -3.2,-3.7 l -30.5,-14.6 c -0.8,-0.4 -1.7,-0.5 -2.5,-0.5 -0.8,0 -1.7,0 -2.5,0.2 l -30.5,14.7 c -1.5000002,0.7 -2.6000002,2 -3.0000002,3.7 L 0.09743584,51.5 c -0.3,1.7 0.1,3.4 1.09999996,4.8 L 22.297436,82.4 c 1.2,1.2 2.9,2 4.6,2.1 h 33.6 c 1.8,0.2 3.5,-0.6 4.6,-2.1 l 21.1,-26.1 c 1,-1.4 1.4,-3.1 1.2,-4.8 z"
       id="path10349"
       style="fill:#326de6" />
    <path
       d="m 75.097436,50.2 v 0 c -0.1,0 -0.2,0 -0.2,-0.1 0,-0.1 -0.2,-0.1 -0.4,-0.1 -0.4,-0.1 -0.8,-0.1 -1.2,-0.1 -0.2,0 -0.4,0 -0.6,-0.1 h -0.1 c -1.1,-0.1 -2.3,-0.3 -3.4,-0.6 -0.3,-0.1 -0.6,-0.4 -0.7,-0.7 0.1,0 0,0 0,0 v 0 l -0.8,-0.2 c 0.4,-2.9 0.2,-5.9 -0.4,-8.8 -0.7,-2.9 -1.9,-5.7 -3.5,-8.2 l 0.6,-0.6 v 0 -0.1 c 0,-0.3 0.1,-0.7 0.3,-0.9 0.9,-0.8 1.8,-1.4 2.8,-2 v 0 c 0.2,-0.1 0.4,-0.2 0.6,-0.3 0.4,-0.2 0.7,-0.4 1.1,-0.6 0.1,-0.1 0.2,-0.1 0.3,-0.2 0.1,-0.1 0,-0.1 0,-0.2 v 0 c 0.9,-0.7 1.1,-1.9 0.4,-2.8 -0.3,-0.4 -0.9,-0.7 -1.4,-0.7 -0.5,0 -1,0.2 -1.4,0.5 v 0 l -0.1,0.1 c -0.1,0.1 -0.2,0.2 -0.3,0.2 -0.3,0.3 -0.6,0.6 -0.8,0.9 -0.1,0.2 -0.3,0.3 -0.4,0.4 v 0 c -0.7,0.8 -1.6,1.6 -2.5,2.2 -0.2,0.1 -0.4,0.2 -0.6,0.2 -0.1,0 -0.3,0 -0.4,-0.1 h -0.1 l -0.8,0.5 c -0.8,-0.8 -1.7,-1.6 -2.5,-2.4 -3.7,-2.9 -8.3,-4.7 -13,-5.2 l -0.1,-0.8 v 0 0.1 c -0.3,-0.2 -0.4,-0.5 -0.5,-0.8 0,-1.1 0,-2.2 0.2,-3.4 v -0.1 c 0,-0.2 0.1,-0.4 0.1,-0.6 0.1,-0.4 0.1,-0.8 0.2,-1.2 v -0.6 0 c 0.1,-1 -0.7,-2 -1.7,-2.1 -0.6,-0.1 -1.2,0.2 -1.7,0.7 -0.4,0.4 -0.6,0.9 -0.6,1.4 v 0 0.5 c 0,0.4 0.1,0.8 0.2,1.2 0.1,0.2 0.1,0.4 0.1,0.6 v 0.1 c 0.2,1.1 0.2,2.2 0.2,3.4 -0.1,0.3 -0.2,0.6 -0.5,0.8 v 0.2 0 l -0.1,0.8 c -1.1,0.1 -2.2,0.3 -3.4,0.5 -4.7,1 -9,3.5 -12.3,7 l -0.6,-0.4 h -0.1 c -0.1,0 -0.2,0.1 -0.4,0.1 -0.2,0 -0.4,-0.1 -0.6,-0.2 -0.9,-0.7 -1.8,-1.5 -2.5,-2.3 v 0 c -0.1,-0.2 -0.3,-0.3 -0.4,-0.4 -0.3,-0.3 -0.5,-0.6 -0.8,-0.9 -0.1,-0.1 -0.2,-0.1 -0.3,-0.2 -0.1,-0.1 -0.1,-0.1 -0.1,-0.1 v 0 c -0.4,-0.3 -0.9,-0.5 -1.4,-0.5 -0.6,0 -1.1,0.2 -1.4,0.7 -0.6,0.9 -0.4,2.1 0.4,2.8 v 0 c 0.1,0 0.1,0.1 0.1,0.1 0,0 0.2,0.2 0.3,0.2 0.3,0.2 0.7,0.4 1.1,0.6 0.2,0.1 0.4,0.2 0.6,0.3 v 0 c 1,0.6 2,1.2 2.8,2 0.2,0.2 0.4,0.6 0.3,0.9 v -0.1 0 l 0.6,0.6 c -0.1,0.2 -0.2,0.3 -0.3,0.5 -3.1,4.9 -4.4,10.7 -3.5,16.4 l -0.8,0.2 v 0 c 0,0.1 -0.1,0.1 -0.1,0.1 -0.1,0.3 -0.4,0.5 -0.7,0.7 -1.1,0.3 -2.2,0.5 -3.4,0.6 v 0 c -0.2,0 -0.4,0 -0.6,0.1 -0.4,0 -0.8,0.1 -1.2,0.1 -0.1,0 -0.2,0.1 -0.4,0.1 -0.1,0 -0.1,0 -0.2,0.1 v 0 c -1.1,0.2 -1.8,1.2 -1.6,2.3 0,0 0,0 0,0 0.2,0.9 1.1,1.5 2,1.4 0.2,0 0.3,0 0.5,-0.1 v 0 c 0.1,0 0.1,0 0.1,-0.1 0,-0.1 0.3,0 0.4,0 0.4,-0.1 0.8,-0.3 1.1,-0.4 0.2,-0.1 0.4,-0.2 0.6,-0.2 h 0.1 c 1.1,-0.4 2.1,-0.7 3.3,-0.9 h 0.1 c 0.3,0 0.6,0.1 0.8,0.3 0.1,0 0.1,0.1 0.1,0.1 v 0 l 0.9,-0.1 c 1.5,4.6 4.3,8.7 8.2,11.7 0.9,0.7 1.7,1.3 2.7,1.8 l -0.5,0.7 v 0 c 0,0.1 0.1,0.1 0.1,0.1 0.2,0.3 0.2,0.7 0.1,1 -0.4,1 -1,2 -1.6,2.9 v 0.1 c -0.1,0.2 -0.2,0.3 -0.4,0.5 -0.2,0.2 -0.4,0.6 -0.7,1 -0.1,0.1 -0.1,0.2 -0.2,0.3 0,0 0,0.1 -0.1,0.1 v 0 c -0.5,1 -0.1,2.2 0.8,2.7 0.2,0.1 0.5,0.2 0.7,0.2 0.8,0 1.5,-0.5 1.9,-1.2 v 0 c 0,0 0,-0.1 0.1,-0.1 0,-0.1 0.1,-0.2 0.2,-0.3 0.1,-0.4 0.3,-0.7 0.4,-1.1 l 0.2,-0.6 v 0 c 0.3,-1.1 0.8,-2.1 1.3,-3.1 0.2,-0.3 0.5,-0.5 0.8,-0.6 0.1,0 0.1,0 0.1,-0.1 v 0 l 0.4,-0.8 c 2.8,1.1 5.7,1.6 8.7,1.6 1.8,0 3.6,-0.2 5.4,-0.7 1.1,-0.2 2.2,-0.6 3.2,-0.9 l 0.4,0.7 v 0 c 0.1,0 0.1,0 0.1,0.1 0.3,0.1 0.6,0.3 0.8,0.6 0.5,1 1,2 1.3,3.1 v 0.1 l 0.2,0.6 c 0.1,0.4 0.2,0.8 0.4,1.1 0.1,0.1 0.1,0.2 0.2,0.3 0,0 0,0.1 0.1,0.1 v 0 c 0.4,0.7 1.1,1.2 1.9,1.2 0.3,0 0.5,-0.1 0.8,-0.2 0.4,-0.2 0.8,-0.6 0.9,-1.1 0.1,-0.5 0.1,-1 -0.1,-1.5 v 0 c 0,-0.1 -0.1,-0.1 -0.1,-0.1 0,-0.1 -0.1,-0.2 -0.2,-0.3 -0.2,-0.4 -0.4,-0.7 -0.7,-1 -0.1,-0.2 -0.2,-0.3 -0.4,-0.5 v -0.2 c -0.7,-0.9 -1.2,-1.9 -1.6,-2.9 -0.1,-0.3 -0.1,-0.7 0.1,-1 0,-0.1 0.1,-0.1 0.1,-0.1 v 0 l -0.3,-0.8 c 5.1,-3.1 9,-7.9 10.8,-13.6 l 0.8,0.1 v 0 c 0.1,0 0.1,-0.1 0.1,-0.1 0.2,-0.2 0.5,-0.3 0.8,-0.3 h 0.1 c 1.1,0.2 2.2,0.5 3.2,0.9 h 0.1 c 0.2,0.1 0.4,0.2 0.6,0.2 0.4,0.2 0.7,0.4 1.1,0.5 0.1,0 0.2,0.1 0.4,0.1 0.1,0 0.1,0 0.2,0.1 v 0 c 0.2,0.1 0.3,0.1 0.5,0.1 0.9,0 1.7,-0.6 2,-1.4 -0.1,-1.1 -0.9,-1.9 -1.8,-2.1 z m -28.9,-3.1 -2.7,1.3 -2.7,-1.3 -0.7,-2.9 1.9,-2.4 h 3 l 1.9,2.4 z m 16.3,-6.5 c 0.5,2.1 0.6,4.2 0.4,6.3 l -9.5,-2.7 v 0 c -0.9,-0.2 -1.4,-1.1 -1.2,-2 0.1,-0.3 0.2,-0.5 0.4,-0.7 l 7.5,-6.8 c 1.1,1.8 1.9,3.8 2.4,5.9 z m -5.4,-9.6 -8.2,5.8 c -0.7,0.4 -1.7,0.3 -2.2,-0.4 -0.2,-0.2 -0.3,-0.4 -0.3,-0.7 l -0.6,-10.1 c 4.4,0.5 8.3,2.4 11.3,5.4 z m -18.1,-5.1 2,-0.4 -0.5,10 v 0 c 0,0.9 -0.8,1.6 -1.7,1.6 -0.3,0 -0.5,-0.1 -0.8,-0.2 l -8.3,-5.9 c 2.6,-2.5 5.8,-4.3 9.3,-5.1 z m -12.2,8.8 7.4,6.6 v 0 c 0.7,0.6 0.8,1.6 0.2,2.3 -0.2,0.3 -0.4,0.4 -0.8,0.5 l -9.7,2.8 c -0.3,-4.2 0.7,-8.5 2.9,-12.2 z m -1.7,16.9 9.9,-1.7 c 0.8,0 1.6,0.5 1.7,1.3 0.1,0.3 0.1,0.7 -0.1,1 v 0 l -3.8,9.2 c -3.5,-2.3 -6.3,-5.8 -7.7,-9.8 z m 22.7,12.4 c -1.4,0.3 -2.8,0.5 -4.3,0.5 -2.1,0 -4.3,-0.4 -6.3,-1 l 4.9,-8.9 c 0.5,-0.6 1.3,-0.8 2,-0.4 0.3,0.2 0.5,0.4 0.8,0.7 v 0 l 4.8,8.7 c -0.6,0.1 -1.2,0.2 -1.9,0.4 z m 12.2,-8.7 c -1.5,2.4 -3.6,4.5 -6,6 l -3.9,-9.4 c -0.2,-0.8 0.2,-1.6 0.9,-1.9 0.3,-0.1 0.6,-0.2 0.9,-0.2 l 10,1.7 c -0.5,1.4 -1.1,2.7 -1.9,3.8 z"
       id="path10351"
       style="fill:#ffffff" />
  </g>
  <g
     id="g537">
    <path
       id="rect4496"
       style="fill:#dddddd;fill-opacity:1;fill-rule:evenodd;stroke:none;stroke-width:3.61948;stroke-linecap:round;stroke-linejoin:round;stroke-miterlimit:4;stroke-dasharray:none;stroke-opacity:1"
       d="M 72.824707,37.767334 V 99.214891 H 173.27087 V 37.767334 Z" />
    <path
       id="path4-3"
       d="m 96.085398,85.78125 c 1.881045,0 3.385879,-3.57421 3.385879,-8.16963 0,-4.59543 -1.504834,-8.16964 -3.385879,-8.16964 -1.881044,0 -3.385879,3.57421 -3.385879,8.16964 0,4.59542 1.504835,8.16963 3.385879,8.16963 z"
       style="clip-rule:evenodd;fill:#c0c81f;fill-opacity:1;fill-rule:evenodd;stroke-width:3.09914" />
    <path
       id="path6"
       d="m 193.12782,24.52427 c -4.59543,-4.85071 -25.53011,1.0212 -38.29517,8.93554 -9.95674,-5.10602 -21.95589,-8.16962 -34.72093,-8.16962 -13.02037,0 -25.01952,3.0636 -34.976266,8.16962 -12.765052,-7.91434 -33.95504,-14.04156 -38.295158,-8.93554 -4.595418,5.10602 3.318914,26.29601 12.765053,38.03987 0,0 0,0 0,0 -0.765903,3.0636 -1.276505,6.12722 -1.276505,9.44614 0,10.21204 4.340118,19.65818 11.743848,27.31721 h 42.124678 c -1.27651,-2.55301 0.51061,-4.08482 8.16963,-4.08482 7.65905,0.2553 9.19084,1.53181 8.16964,4.08482 h 42.12467 c 7.40374,-7.65903 11.74386,-17.36048 11.74386,-27.31721 0,-3.31892 -0.51061,-6.38254 -1.2765,-9.44614 C 190.0642,50.82028 197.72323,29.375 193.12782,24.52427 Z M 96.113401,91.92376 c -8.935538,0 -16.339269,-7.40374 -16.339269,-16.33927 0,-8.93553 7.403731,-16.33927 16.339269,-16.33927 8.935529,0 16.339269,7.40374 16.339269,16.33927 0,8.93553 -7.40374,16.33927 -16.339269,16.33927 z m 47.996599,0 c -8.93553,0 -16.33926,-7.40374 -16.33926,-16.33927 0,-8.93553 7.40373,-16.33927 16.33926,-16.33927 8.93555,0 16.33927,7.40374 16.33927,16.33927 0,8.93553 -7.14842,16.33927 -16.33927,16.33927 z"
       style="clip-rule:evenodd;fill:#784421;fill-opacity:1;fill-rule:evenodd;stroke-width:2.55301" />
    <g
       id="g4541"
       style="fill:#2b1100;fill-opacity:1"
       transform="translate(0,-812.36217)">
      <path
         style="clip-rule:evenodd;fill:#2b1100;fill-opacity:1;fill-rule:evenodd;stroke-width:2.55301"
         id="path10"
         d="m 168.5072,903.26472 c 15.31805,-19.14757 46.72009,-28.33841 67.65477,-15.06276 -24.50889,-3.82951 -46.72009,2.55301 -67.65477,15.06276 z" />
      <path
         style="clip-rule:evenodd;fill:#2b1100;fill-opacity:1;fill-rule:evenodd;stroke-width:2.55301"
         id="path12"
         d="m 167.486,898.66931 c 8.68022,-20.42409 34.46564,-33.69975 55.14502,-26.55131 -21.70058,2.80831 -39.31636,11.23323 -55.14502,26.55131 z" />
      <path
         style="clip-rule:evenodd;fill:#2b1100;fill-opacity:1;fill-rule:evenodd;stroke-width:2.55301"
         id="path14"
         d="m 167.23069,908.62604 c 15.82867,-15.06275 50.80491,-20.16879 61.52756,-4.34011 -21.70059,-6.89313 -40.59288,-3.82953 -61.52756,4.34011 z" />
    </g>
    <g
       id="g4536"
       style="fill:#2b1100;fill-opacity:1"
       transform="translate(0,-812.36217)">
      <path
         style="clip-rule:evenodd;fill:#2b1100;fill-opacity:1;fill-rule:evenodd;stroke-width:2.55301"
         id="path16"
         d="M 71.492797,903.26472 C 56.174733,884.11715 24.772703,874.92631 3.8380177,888.20196 28.346918,884.37245 50.55811,890.75497 71.492797,903.26472 Z" />
      <path
         style="clip-rule:evenodd;fill:#2b1100;fill-opacity:1;fill-rule:evenodd;stroke-width:2.55301"
         id="path18"
         d="M 72.514,898.66931 C 63.833764,878.24522 38.048358,864.96956 17.368973,872.118 c 21.70059,2.80831 39.316362,11.23323 55.145027,26.55131 z" />
      <path
         style="clip-rule:evenodd;fill:#2b1100;fill-opacity:1;fill-rule:evenodd;stroke-width:2.55301"
         id="path20"
         d="m 72.769301,908.62604 c -15.828665,-15.06275 -50.80491,-20.16879 -61.527553,-4.34011 21.70059,-6.89313 40.592868,-3.82953 61.527553,4.34011 z" />
    </g>
    <path
       id="path8"
       d="m 52.600515,81.20112 c -6.382526,0 -11.743849,3.3189 -14.29686,8.42492 -0.255301,0 -0.510602,0 -0.765903,0 -6.893128,0 -12.765052,5.10602 -12.765052,11.48856 0,8.93553 9.190838,13.78625 17.615773,10.72264 5.10602,7.40373 16.083966,7.91434 20.168783,0 6.127225,-0.2553 16.083966,-1.2765 17.615773,-10.72264 1.021204,-6.38254 -5.616623,-11.48856 -12.765052,-11.48856 -0.255303,0 -0.510604,0 -0.765905,0 -2.042407,-5.10602 -7.659031,-8.42492 -14.041557,-8.42492 z m 134.798965,0 c 6.38252,0 11.74384,3.3189 14.29685,8.42492 0.2553,0 -2.80831,0 0.7659,0 3.57422,0 12.76506,5.10602 12.76506,11.48856 0,8.93553 -9.19084,13.78625 -17.61578,10.72264 -5.10602,7.40373 -16.08397,7.91434 -20.16878,0 -6.12722,-0.2553 -16.08397,-1.2765 -17.61576,-10.72264 -1.02122,-6.38254 9.19083,-11.48856 12.76504,-11.48856 3.57421,0 0.51061,0 0.7659,0 2.04242,-5.10602 7.65904,-8.42492 14.04157,-8.42492 z"
       style="clip-rule:evenodd;fill:#483737;fill-opacity:1;fill-rule:evenodd;stroke-width:2.55301" />
    <path
       id="path4-3-3"
       d="m 143.54212,85.78124 c 1.88105,0 3.38588,-3.57421 3.38588,-8.16963 0,-4.59543 -1.50483,-8.16964 -3.38588,-8.16964 -1.88104,0 -3.38588,3.57421 -3.38588,8.16964 0,4.59542 1.50484,8.16963 3.38588,8.16963 z"
       style="clip-rule:evenodd;fill:#c0c81f;fill-opacity:1;fill-rule:evenodd;stroke-width:3.09914" />
  </g>
  <path
     id="path4"
     d="m 89.505344,125.57269 16.020986,-8.34508 a 1.2246862,1.2246862 0 0 0 0.5204,-1.65194 L 97.701664,99.55469 a 1.2246862,1.2246862 0 0 0 -1.651942,-0.520403 l -16.02098,8.345073 a 1.2246862,1.2246862 0 0 0 -0.520408,1.65194 l 8.345069,16.02098 a 1.2246862,1.2246862 0 0 0 1.651941,0.52041 z m 5.509737,-10.36529 5.756699,-2.99858 a 0.73481691,0.73481691 0 0 1 0.67893,1.30341 l -5.756703,2.99858 a 0.73481599,0.73481599 0 0 1 -0.678926,-1.30341 z m -10.583738,-3.42131 a 0.73481173,0.73481173 0 0 1 0.441296,-1.40084 l 6.190322,1.94829 a 0.73481173,0.73481173 0 0 1 0.479768,0.92107 l -1.950464,6.19145 a 0.73481173,0.73481173 0 0 1 -1.400832,-0.44129 l 1.729805,-5.49104 z"
     style="stroke-width:0.244938;fill:#c8a9fa" />
  <path
     id="path4-36"
     d="m 132.47221,117.84156 16.51336,7.32265 a 1.2246862,1.2246862 0 0 0 1.616,-0.62311 l 7.32265,-16.51335 a 1.2246862,1.2246862 0 0 0 -0.62311,-1.61601 l -16.51336,-7.322638 a 1.2246862,1.2246862 0 0 0 -1.616,0.623101 l -7.32264,16.513347 a 1.2246862,1.2246862 0 0 0 0.6231,1.61601 z m 11.53917,-2.15496 5.93362,2.63119 a 0.73481537,0.73481537 0 0 1 -0.59575,1.34346 l -5.93361,-2.63119 a 0.73481537,0.73481537 0 0 1 0.59574,-1.34346 z m -3.92397,-10.40786 a 0.73481173,0.73481173 0 0 1 1.37037,-0.52839 l 2.33636,6.05453 a 0.73481173,0.73481173 0 0 1 -0.42099,0.94938 l -6.05676,2.33537 a 0.73481173,0.73481173 0 0 1 -0.52839,-1.37036 l 5.37159,-2.07119 z"
     style="fill:#86cfda;stroke-width:0.244938" />
  <path
     id="path4-0"
     d="m 163.99013,143.15267 4.57083,17.47626 a 1.2246862,1.2246862 0 0 0 1.49473,0.87494 l 17.47625,-4.57083 a 1.2246862,1.2246862 0 0 0 0.87495,-1.49473 l -4.57083,-17.47625 a 1.2246862,1.2246862 0 0 0 -1.49473,-0.87495 l -17.47625,4.57083 a 1.2246862,1.2246862 0 0 0 -0.87495,1.49473 z m 8.87937,7.67809 1.6424,6.27961 a 0.734815,0.734815 0 0 1 -1.4218,0.37186 l -1.6424,-6.27961 a 0.734815,0.734815 0 0 1 1.4218,-0.37186 z m 5.69064,-9.55708 a 0.73481173,0.73481173 0 0 1 1.26752,0.74195 l -3.27693,5.60158 A 0.73481173,0.73481173 0 0 1 175.546,147.88 l -5.6022,-3.27929 a 0.73481173,0.73481173 0 0 1 0.74195,-1.26752 l 4.96845,2.9083 z"
     style="stroke-width:0.244938;fill:#67dab8" />
  <path
     id="path4-6"
     d="m 163.67669,185.62315 -10.81361,14.46988 a 1.2246862,1.2246862 0 0 0 0.24787,1.71415 l 14.4699,10.81362 a 1.2246862,1.2246862 0 0 0 1.71415,-0.24789 l 10.81361,-14.46989 a 1.2246862,1.2246862 0 0 0 -0.24788,-1.71414 l -14.4699,-10.81362 a 1.2246862,1.2246862 0 0 0 -1.71414,0.24789 z m -0.46677,11.72938 -3.88558,5.19936 a 0.734815,0.734815 0 0 1 -1.17721,-0.87975 l 3.88558,-5.19937 a 0.734815,0.734815 0 0 1 1.17721,0.87976 z m 11.02007,-1.50963 a 0.73481173,0.73481173 0 0 1 0.21021,1.45359 l -6.42262,0.93053 a 0.73481173,0.73481173 0 0 1 -0.8319,-0.62169 l -0.92905,-6.42458 a 0.73481173,0.73481173 0 0 1 1.45357,-0.21021 l 0.82398,5.69779 z"
     style="stroke-width:0.244938;fill:#6dc381" />
  <path
     id="path4-2"
     d="m 130.27651,211.85801 -18.0552,0.56741 a 1.2246862,1.2246862 0 0 0 -1.18561,1.26255 l 0.5674,18.0552 a 1.2246862,1.2246862 0 0 0 1.26256,1.18561 l 18.05519,-0.5674 a 1.2246862,1.2246862 0 0 0 1.18562,-1.26256 l -0.56741,-18.05519 a 1.2246862,1.2246862 0 0 0 -1.26255,-1.18562 z m -9.46143,6.94822 -6.48764,0.20388 a 0.734815,0.734815 0 0 1 -0.0462,-1.4689 l 6.48764,-0.20389 a 0.73481818,0.73481818 0 0 1 0.0462,1.46891 z m 8.05118,7.6746 a 0.73481173,0.73481173 0 0 1 -1.0054,1.07064 l -4.73196,-4.44123 a 0.73481173,0.73481173 0 0 1 -0.0326,-1.03801 l 4.44368,-4.73204 a 0.73481173,0.73481173 0 0 1 1.07064,1.0054 l -3.94097,4.19672 z"
     style="stroke-width:0.244938;fill:#ffd556" />
  <path
     id="path4-61"
     d="m 88.940586,202.10189 -11.70085,-13.76235 a 1.2246862,1.2246862 0 0 0 -1.726322,-0.13976 l -13.762348,11.70084 a 1.2246862,1.2246862 0 0 0 -0.139764,1.72633 l 11.70085,13.76234 a 1.2246862,1.2246862 0 0 0 1.726322,0.13977 l 13.762348,-11.70085 a 1.2246862,1.2246862 0 0 0 0.139764,-1.72632 z m -11.331439,-3.06511 -4.204384,-4.94511 a 0.73481809,0.73481809 0 0 1 1.119661,-0.95194 l 4.204375,4.94512 a 0.734815,0.734815 0 0 1 -1.119652,0.95193 z m -0.980422,11.07971 a 0.73481173,0.73481173 0 0 1 -1.463915,-0.11852 l 0.521962,-6.46866 a 0.73481173,0.73481173 0 0 1 0.791221,-0.67269 l 6.470237,0.52383 a 0.73481173,0.73481173 0 0 1 -0.118516,1.46392 L 77.09143,204.3798 Z"
     style="stroke-width:0.244938;fill:#fea75f" />
  <path
     id="path4-8"
     d="m 70.795701,163.70129 3.464485,-17.72878 a 1.2246862,1.2246862 0 0 0 -0.967079,-1.43683 l -17.72877,-3.46448 a 1.2246862,1.2246862 0 0 0 -1.436843,0.96708 l -3.464475,17.72877 a 1.2246862,1.2246862 0 0 0 0.967079,1.43684 l 17.72877,3.46447 a 1.2246862,1.2246862 0 0 0 1.436833,-0.96707 z m -4.668639,-10.77034 1.244857,-6.37034 a 0.73481788,0.73481788 0 0 1 1.442355,0.28185 l -1.244866,6.37036 a 0.73481506,0.73481506 0 0 1 -1.442346,-0.28187 z m -9.273745,6.14156 a 0.73481173,0.73481173 0 0 1 -0.820076,-1.21842 l 5.38284,-3.62506 a 0.73481173,0.73481173 0 0 1 1.01925,0.19918 l 3.624583,5.38524 a 0.73481173,0.73481173 0 0 1 -1.218432,0.82008 l -3.214545,-4.77603 z"
     style="stroke-width:0.244938;fill:#e77681" />
</svg>
